External Loads File
version=1
nRows=47
nColumns=13
Range=5.000000e-03-10 seconds
endheader
time 	forceRightX 	forceRightY 	forceRightZ 	pointRightX 	pointRightY 	pointRightZ 	forceLeftX 	forceLeftY 	forceLeftZ 	pointLeftX 	pointLeftY 	pointLeftZ 		
0.005000 23.720880 97.930026 -0.000000 0.185057 0.163092 -0.147895 47.170158 114.036555 -0.000000 0.295010 0.495947 -0.380081
0.010000 23.744458 97.975737 -0.000000 0.185069 0.163116 -0.147888 44.227594 110.537373 -0.000000 0.295009 0.495964 -0.380086
0.015000 23.952167 97.984384 -0.000000 0.185076 0.163105 -0.147901 41.775278 107.398933 -0.000000 0.294905 0.495967 -0.380248
0.020000 24.102886 97.980610 -0.000000 0.185072 0.163113 -0.147897 39.689048 104.888735 -0.000000 0.294850 0.495970 -0.380333
0.025000 24.087862 97.996214 -0.000000 0.185077 0.163126 -0.147931 37.911141 103.114469 -0.000000 0.294689 0.495799 -0.380411
0.030000 24.479909 97.912853 -0.000000 0.185088 0.163151 -0.147910 37.028855 101.851285 -0.000000 0.294689 0.495857 -0.380478
0.035000 24.560003 97.914121 -0.000000 0.185107 0.163156 -0.147930 36.235376 101.299908 -0.000000 0.294657 0.495836 -0.380476
0.040000 24.978798 97.811667 -0.000000 0.185121 0.163150 -0.147930 36.139345 101.081935 -0.000000 0.294661 0.495836 -0.380471
0.045000 25.028169 97.749281 -0.000000 0.185115 0.163150 -0.147933 35.930314 101.290113 -0.000000 0.294650 0.495827 -0.380478
0.050000 25.253093 97.578775 -0.000000 0.185127 0.163164 -0.147931 36.081565 101.558583 -0.000000 0.294646 0.495819 -0.380472
0.055000 25.474457 97.377927 -0.000000 0.185139 0.163156 -0.147932 36.309772 101.824685 -0.000000 0.294643 0.495806 -0.380469
0.060000 25.492933 97.250256 -0.000000 0.185139 0.163177 -0.147925 36.325647 102.087412 -0.000000 0.294638 0.495813 -0.380477
0.065000 25.735542 97.111485 -0.000000 0.185138 0.163165 -0.147947 36.549756 102.169768 -0.000000 0.294640 0.495804 -0.380453
0.070000 25.787241 97.060268 -0.000000 0.185146 0.163157 -0.147932 36.570573 102.246042 -0.000000 0.294629 0.495795 -0.380463
0.075000 25.931364 96.996492 -0.000000 0.185144 0.163165 -0.147947 36.728019 102.242715 -0.000000 0.294639 0.495796 -0.380463
0.080000 26.125143 96.915760 -0.000000 0.185130 0.163181 -0.147936 37.001816 102.213900 -0.000000 0.294639 0.495784 -0.380472
0.085000 26.083948 96.902775 -0.000000 0.185130 0.163182 -0.147937 37.091123 102.322389 -0.000000 0.294645 0.495796 -0.380464
0.090000 26.169909 96.894705 -0.000000 0.185113 0.163184 -0.147927 37.361586 102.498664 -0.000000 0.294647 0.495780 -0.380465
0.095000 26.297168 96.953779 -0.000000 0.185104 0.163187 -0.147943 37.690140 102.808156 -0.000000 0.294663 0.495777 -0.380479
0.100000 26.399940 97.115936 -0.000000 0.185093 0.163194 -0.147943 37.970524 103.251936 -0.000000 0.294674 0.495769 -0.380464
0.105000 26.579180 97.343831 -0.000000 0.185081 0.163193 -0.147927 38.290019 103.733469 -0.000000 0.294689 0.495776 -0.380469
0.110000 26.805577 97.606590 -0.000000 0.185056 0.163187 -0.147943 38.611331 104.178173 -0.000000 0.294699 0.495754 -0.380464
0.115000 26.963326 97.877141 -0.000000 0.185053 0.163192 -0.147938 38.800367 104.516433 -0.000000 0.294735 0.495743 -0.380462
0.120000 27.098571 98.094022 -0.000000 0.185034 0.163182 -0.147928 38.882674 104.621599 -0.000000 0.294755 0.495741 -0.380462
0.125000 27.213086 98.241893 -0.000000 0.185028 0.163196 -0.147928 38.846230 104.460212 -0.000000 0.294784 0.495746 -0.380450
0.130000 27.330703 98.324007 -0.000000 0.185025 0.163189 -0.147940 38.739278 104.099506 -0.000000 0.294821 0.495757 -0.380437
0.135000 27.287940 98.398871 -0.000000 0.185009 0.163201 -0.147940 38.443445 103.750438 -0.000000 0.294844 0.495736 -0.380436
0.140000 27.289249 98.420099 -0.000000 0.185000 0.163194 -0.147934 38.239220 103.483820 -0.000000 0.294843 0.495743 -0.380433
0.145000 27.345095 98.397945 -0.000000 0.185002 0.163186 -0.147936 38.181053 103.394954 -0.000000 0.294851 0.495744 -0.380433
0.150000 27.464834 98.344683 -0.000000 0.185012 0.163184 -0.147938 38.288176 103.511542 -0.000000 0.294848 0.495737 -0.380434
0.155000 27.652486 98.262688 -0.000000 0.185011 0.163183 -0.147941 38.551951 103.809580 -0.000000 0.294862 0.495755 -0.380435
0.160000 27.676636 98.205042 -0.000000 0.185025 0.163177 -0.147941 38.694374 104.305734 -0.000000 0.294855 0.495733 -0.380444
0.165000 27.822597 98.081293 -0.000000 0.185029 0.163177 -0.147949 38.974505 104.778971 -0.000000 0.294845 0.495740 -0.380432
0.170000 28.061903 97.903217 -0.000000 0.185043 0.163180 -0.147952 39.341858 105.132936 -0.000000 0.294839 0.495739 -0.380439
0.175000 28.025835 97.784348 -0.000000 0.185059 0.163172 -0.147944 39.407196 105.439483 -0.000000 0.294832 0.495752 -0.380447
0.180000 27.998966 97.645713 -0.000000 0.185068 0.163170 -0.147948 39.489660 105.555130 -0.000000 0.294817 0.495754 -0.380443
0.185000 28.062934 97.469414 -0.000000 0.185069 0.163164 -0.147935 39.684829 105.472983 -0.000000 0.294818 0.495763 -0.380443
0.190000 27.977981 97.340644 -0.000000 0.185096 0.163159 -0.147943 39.739334 105.364847 -0.000000 0.294802 0.495751 -0.380444
0.195000 27.841006 97.250050 -0.000000 0.185103 0.163136 -0.147931 39.758732 105.269232 -0.000000 0.294790 0.495762 -0.380446
0.200000 27.702091 97.192575 -0.000000 0.185116 0.163142 -0.147939 39.779633 105.203725 -0.000000 0.294786 0.495763 -0.380438
0.205000 27.712420 97.119117 -0.000000 0.185134 0.163135 -0.147942 39.934127 105.091194 -0.000000 0.294769 0.495765 -0.380434
0.210000 27.531731 97.103791 -0.000000 0.185140 0.163138 -0.147939 39.819655 105.013481 -0.000000 0.294761 0.495769 -0.380436
0.215000 27.381928 97.052218 -0.000000 0.185165 0.163134 -0.147942 39.648596 104.822855 -0.000000 0.294744 0.495778 -0.380442
0.220000 27.344856 96.917314 -0.000000 0.185176 0.163121 -0.147943 39.504504 104.479215 -0.000000 0.294727 0.495792 -0.380430
0.225000 27.207313 96.754387 -0.000000 0.185175 0.163117 -0.147943 39.191084 104.127799 -0.000000 0.294713 0.495787 -0.380433
0.230000 27.090750 96.555248 -0.000000 0.185194 0.163105 -0.147939 38.887877 103.806724 -0.000000 0.294713 0.495799 -0.380440
0.235000 27.122817 96.344392 -0.000000 0.185201 0.163115 -0.147945 38.754348 103.533830 -0.000000 0.294703 0.495801 -0.380444
